<svg viewBox="0 0 1200 900" xmlns="http://www.w3.org/2000/svg">
  <!-- Project Gallery Interface -->
  <g id="gallery-wireframe">
    <text x="20" y="30" font-family="Arial" font-size="16" font-weight="bold">1. Project Gallery Dashboard</text>
    
    <!-- Header -->
    <rect x="20" y="50" width="360" height="60" fill="none" stroke="#333" stroke-width="2"/>
    <text x="30" y="75" font-family="Arial" font-size="12">Resources Hub</text>
    <rect x="280" y="60" width="80" height="20" fill="#f0f0f0" stroke="#999" stroke-width="1"/>
    <text x="285" y="73" font-family="Arial" font-size="10">User Menu</text>
    <rect x="315" y="85" width="50" height="20" fill="#ff6b6b" stroke="#d63031" stroke-width="1"/>
    <text x="325" y="98" font-family="Arial" font-size="10" fill="white">Logout</text>
    
    <!-- Search and Filters -->
    <rect x="20" y="120" width="300" height="35" fill="none" stroke="#333" stroke-width="1"/>
    <text x="25" y="142" font-family="Arial" font-size="11" fill="#666">Search projects...</text>
    <rect x="330" y="120" width="50" height="35" fill="#e0e0e0" stroke="#333" stroke-width="1"/>
    <text x="345" y="142" font-family="Arial" font-size="10">Filters</text>
    
    <!-- Action Buttons -->
    <rect x="20" y="170" width="100" height="35" fill="#00b894" stroke="#00a085" stroke-width="1"/>
    <text x="55" y="192" font-family="Arial" font-size="11" fill="white">Upload Project</text>
    
    <rect x="130" y="170" width="80" height="35" fill="none" stroke="#333" stroke-width="1"/>
    <text x="160" y="192" font-family="Arial" font-size="11">My Projects</text>
    
    <rect x="220" y="170" width="60" height="35" fill="none" stroke="#333" stroke-width="1"/>
    <text x="240" y="192" font-family="Arial" font-size="11">Favorites</text>
    
    <!-- Project Grid -->
    <g id="project-cards">
      <!-- Card 1 -->
      <rect x="20" y="225" width="110" height="160" fill="none" stroke="#333" stroke-width="1"/>
      <rect x="25" y="230" width="100" height="70" fill="#f8f9fa" stroke="#dee2e6"/>
      <text x="75" y="270" font-family="Arial" font-size="10" text-anchor="middle" fill="#666">Preview Image</text>
      <text x="30" y="315" font-family="Arial" font-size="12" font-weight="bold">E-Commerce Site</text>
      <text x="30" y="332" font-family="Arial" font-size="10" fill="#666">by John Doe</text>
      <text x="30" y="348" font-family="Arial" font-size="9" fill="#007bff">React • Node.js</text>
      <text x="30" y="365" font-family="Arial" font-size="9" fill="#ffa502">★★★★☆ (12)</text>
      <rect x="80" y="352" width="45" height="20" fill="#6c757d" stroke="#495057" stroke-width="1"/>
      <text x="95" y="365" font-family="Arial" font-size="9" fill="white">View</text>
      
      <!-- Card 2 -->
      <rect x="140" y="225" width="110" height="160" fill="none" stroke="#333" stroke-width="1"/>
      <rect x="145" y="230" width="100" height="70" fill="#f8f9fa" stroke="#dee2e6"/>
      <text x="195" y="270" font-family="Arial" font-size="10" text-anchor="middle" fill="#666">Preview Image</text>
      <text x="150" y="315" font-family="Arial" font-size="12" font-weight="bold">Portfolio Site</text>
      <text x="150" y="332" font-family="Arial" font-size="10" fill="#666">by Jane Smith</text>
      <text x="150" y="348" font-family="Arial" font-size="9" fill="#007bff">Vue.js • Express</text>
      <text x="150" y="365" font-family="Arial" font-size="9" fill="#ffa502">★★★★★ (8)</text>
      <rect x="200" y="352" width="45" height="20" fill="#6c757d" stroke="#495057" stroke-width="1"/>
      <text x="215" y="365" font-family="Arial" font-size="9" fill="white">View</text>
      
      <!-- Card 3 -->
      <rect x="260" y="225" width="110" height="160" fill="none" stroke="#333" stroke-width="1"/>
      <rect x="265" y="230" width="100" height="70" fill="#f8f9fa" stroke="#dee2e6"/>
      <text x="315" y="270" font-family="Arial" font-size="10" text-anchor="middle" fill="#666">Preview Image</text>
      <text x="270" y="315" font-family="Arial" font-size="12" font-weight="bold">Blog Platform</text>
      <text x="270" y="332" font-family="Arial" font-size="10" fill="#666">by Mike Johnson</text>
      <text x="270" y="348" font-family="Arial" font-size="9" fill="#007bff">Django • PostgreSQL</text>
      <text x="270" y="365" font-family="Arial" font-size="9" fill="#ffa502">★★★☆☆ (5)</text>
      <rect x="320" y="352" width="45" height="20" fill="#6c757d" stroke="#495057" stroke-width="1"/>
      <text x="335" y="365" font-family="Arial" font-size="9" fill="white">View</text>
      
      <!-- Card 4 -->
      <rect x="20" y="395" width="110" height="160" fill="none" stroke="#333" stroke-width="1"/>
      <rect x="25" y="400" width="100" height="70" fill="#f8f9fa" stroke="#dee2e6"/>
      <text x="75" y="440" font-family="Arial" font-size="10" text-anchor="middle" fill="#666">Preview Image</text>
      <text x="30" y="485" font-family="Arial" font-size="12" font-weight="bold">Chat App</text>
      <text x="30" y="502" font-family="Arial" font-size="10" fill="#666">by Sarah Lee</text>
      <text x="30" y="518" font-family="Arial" font-size="9" fill="#007bff">Socket.io • MongoDB</text>
      <text x="30" y="535" font-family="Arial" font-size="9" fill="#ffa502">★★★★☆ (7)</text>
      <rect x="80" y="522" width="45" height="20" fill="#6c757d" stroke="#495057" stroke-width="1"/>
      <text x="95" y="535" font-family="Arial" font-size="9" fill="white">View</text>
      
      <!-- Card 5 -->
      <rect x="140" y="395" width="110" height="160" fill="none" stroke="#333" stroke-width="1"/>
      <rect x="145" y="400" width="100" height="70" fill="#f8f9fa" stroke="#dee2e6"/>
      <text x="195" y="440" font-family="Arial" font-size="10" text-anchor="middle" fill="#666">Preview Image</text>
      <text x="150" y="485" font-family="Arial" font-size="12" font-weight="bold">Task Manager</text>
      <text x="150" y="502" font-family="Arial" font-size="10" fill="#666">by Alex Chen</text>
      <text x="150" y="518" font-family="Arial" font-size="9" fill="#007bff">Angular • Firebase</text>
      <text x="150" y="535" font-family="Arial" font-size="9" fill="#ffa502">★★★★☆ (9)</text>
      <rect x="200" y="522" width="45" height="20" fill="#6c757d" stroke="#495057" stroke-width="1"/>
      <text x="215" y="535" font-family="Arial" font-size="9" fill="white">View</text>
      
      <!-- Card 6 -->
      <rect x="260" y="395" width="110" height="160" fill="none" stroke="#333" stroke-width="1"/>
      <rect x="265" y="400" width="100" height="70" fill="#f8f9fa" stroke="#dee2e6"/>
      <text x="315" y="440" font-family="Arial" font-size="10" text-anchor="middle" fill="#666">Preview Image</text>
      <text x="270" y="485" font-family="Arial" font-size="12" font-weight="bold">Recipe Finder</text>
      <text x="270" y="502" font-family="Arial" font-size="10" fill="#666">by Lisa Park</text>
      <text x="270" y="518" font-family="Arial" font-size="9" fill="#007bff">React Native • API</text>
      <text x="270" y="535" font-family="Arial" font-size="9" fill="#ffa502">★★★☆☆ (4)</text>
      <rect x="320" y="522" width="45" height="20" fill="#6c757d" stroke="#495057" stroke-width="1"/>
      <text x="335" y="535" font-family="Arial" font-size="9" fill="white">View</text>
    </g>
    
    <!-- Pagination -->
    <rect x="120" y="575" width="30" height="25" fill="none" stroke="#333" stroke-width="1"/>
    <text x="130" y="592" font-family="Arial" font-size="10">←</text>
    
    <rect x="155" y="575" width="25" height="25" fill="#007bff" stroke="#0056b3" stroke-width="1"/>
    <text x="165" y="592" font-family="Arial" font-size="10" fill="white">1</text>
    
    <rect x="185" y="575" width="25" height="25" fill="none" stroke="#333" stroke-width="1"/>
    <text x="195" y="592" font-family="Arial" font-size="10">2</text>
    
    <rect x="215" y="575" width="25" height="25" fill="none" stroke="#333" stroke-width="1"/>
    <text x="225" y="592" font-family="Arial" font-size="10">3</text>
    
    <rect x="245" y="575" width="30" height="25" fill="none" stroke="#333" stroke-width="1"/>
    <text x="255" y="592" font-family="Arial" font-size="10">→</text>
  </g>
  
  <!-- Project Upload Interface -->
  <g id="upload-wireframe" transform="translate(400, 0)">
    <text x="20" y="30" font-family="Arial" font-size="16" font-weight="bold">2. Project Upload Interface</text>
    
    <!-- Header -->
    <rect x="20" y="50" width="360" height="60" fill="none" stroke="#333" stroke-width="2"/>
    <text x="30" y="75" font-family="Arial" font-size="12">Resources Hub</text>
    <rect x="280" y="65" width="80" height="25" fill="#6c757d" stroke="#495057" stroke-width="1"/>
    <text x="305" y="82" font-family="Arial" font-size="10" fill="white">← Back</text>
    
    <!-- Form Container -->
    <rect x="20" y="125" width="360" height="520" fill="#f8f9fa" stroke="#dee2e6" stroke-width="1"/>
    
    <!-- Form Title -->
    <text x="30" y="150" font-family="Arial" font-size="16" font-weight="bold">Upload New Project</text>
    
    <!-- Project Title -->
    <text x="30" y="180" font-family="Arial" font-size="12">Project Title *</text>
    <rect x="30" y="185" width="340" height="30" fill="white" stroke="#ced4da" stroke-width="1"/>
    <text x="35" y="205" font-family="Arial" font-size="11" fill="#6c757d">Enter project title...</text>
    
    <!-- Description -->
    <text x="30" y="240" font-family="Arial" font-size="12">Description</text>
    <rect x="30" y="245" width="340" height="80" fill="white" stroke="#ced4da" stroke-width="1"/>
    <text x="35" y="265" font-family="Arial" font-size="11" fill="#6c757d">Describe your project...</text>
    
    <!-- Technologies -->
    <text x="30" y="350" font-family="Arial" font-size="12">Technologies Used</text>
    <rect x="30" y="355" width="340" height="30" fill="white" stroke="#ced4da" stroke-width="1"/>
    <text x="35" y="375" font-family="Arial" font-size="11" fill="#6c757d">e.g., React, Node.js, MongoDB</text>
    
    <!-- Live Demo URL -->
    <text x="30" y="410" font-family="Arial" font-size="12">Live Demo URL (optional)</text>
    <rect x="30" y="415" width="340" height="30" fill="white" stroke="#ced4da" stroke-width="1"/>
    <text x="35" y="435" font-family="Arial" font-size="11" fill="#6c757d">https://...</text>
    
    <!-- Repository URL -->
    <text x="30" y="470" font-family="Arial" font-size="12">Repository URL (optional)</text>
    <rect x="30" y="475" width="340" height="30" fill="white" stroke="#ced4da" stroke-width="1"/>
    <text x="35" y="495" font-family="Arial" font-size="11" fill="#6c757d">https://github.com/...</text>
    
    <!-- File Upload -->
    <text x="30" y="530" font-family="Arial" font-size="12">Project Files *</text>
    <rect x="30" y="535" width="340" height="60" fill="white" stroke="#ced4da" stroke-width="2" stroke-dasharray="8,4"/>
    <text x="200" y="560" font-family="Arial" font-size="11" text-anchor="middle" fill="#6c757d">Drag files here or</text>
    <rect x="170" y="570" width="60" height="20" fill="#007bff" stroke="#0056b3" stroke-width="1"/>
    <text x="190" y="583" font-family="Arial" font-size="10" fill="white">Browse</text>
    
    <!-- Upload Progress (hidden initially) -->
    <rect x="30" y="605" width="340" height="20" fill="#e9ecef" stroke="#ced4da" stroke-width="1"/>
    <rect x="30" y="605" width="170" height="20" fill="#28a745"/>
    <text x="200" y="618" font-family="Arial" font-size="10" text-anchor="middle">Uploading... 50%</text>
    
    <!-- Form Buttons -->
    <rect x="280" y="640" width="60" height="35" fill="#28a745" stroke="#1e7e34" stroke-width="1"/>
    <text x="302" y="662" font-family="Arial" font-size="11" fill="white">Upload</text>
    
    <rect x="350" y="640" width="50" height="35" fill="none" stroke="#6c757d" stroke-width="1"/>
    <text x="369" y="662" font-family="Arial" font-size="11">Cancel</text>
  </g>
  
  <!-- Project Detail View -->
  <g id="detail-wireframe" transform="translate(800, 0)">
    <text x="20" y="30" font-family="Arial" font-size="16" font-weight="bold">3. Project Detail View</text>
    
    <!-- Header -->
    <rect x="20" y="50" width="360" height="60" fill="none" stroke="#333" stroke-width="2"/>
    <text x="30" y="75" font-family="Arial" font-size="12">Resources Hub</text>
    <rect x="280" y="65" width="80" height="25" fill="#6c757d" stroke="#495057" stroke-width="1"/>
    <text x="305" y="82" font-family="Arial" font-size="10" fill="white">← Gallery</text>
    
    <!-- Project Header -->
    <text x="20" y="140" font-family="Arial" font-size="18" font-weight="bold">E-Commerce Website</text>
    <text x="20" y="160" font-family="Arial" font-size="12" fill="#6c757d">by John Doe • Uploaded: April 15, 2025</text>
    
    <!-- Rating and Actions -->
    <g transform="translate(20, 170)">
      <text x="0" y="15" font-family="Arial" font-size="12" fill="#ffa502">★★★★☆</text>
      <text x="80" y="15" font-family="Arial" font-size="11" fill="#6c757d">(12 reviews)</text>
      
      <rect x="200" y="0" width="50" height="20" fill="none" stroke="#dc3545" stroke-width="1"/>
      <text x="215" y="14" font-family="Arial" font-size="9">♡ Favorite</text>
      
      <rect x="260" y="0" width="40" height="20" fill="none" stroke="#17a2b8" stroke-width="1"/>
      <text x="270" y="14" font-family="Arial" font-size="9">Share</text>
    </g>
    
    <!-- Project Preview -->
    <rect x="20" y="205" width="360" height="200" fill="#f8f9fa" stroke="#dee2e6" stroke-width="2"/>
    <text x="200" y="310" font-family="Arial" font-size="14" text-anchor="middle" fill="#6c757d">Live Project Preview</text>
    <text x="200" y="330" font-family="Arial" font-size="11" text-anchor="middle" fill="#007bff">Click to interact</text>
    
    <!-- Action Buttons -->
    <g transform="translate(20, 420)">
      <rect x="0" y="0" width="80" height="35" fill="#28a745" stroke="#1e7e34" stroke-width="1"/>
      <text x="30" y="22" font-family="Arial" font-size="11" fill="white">View Live</text>
      
      <rect x="90" y="0" width="80" height="35" fill="#007bff" stroke="#0056b3" stroke-width="1"/>
      <text x="115" y="22" font-family="Arial" font-size="11" fill="white">Download</text>
      
      <rect x="180" y="0" width="70" height="35" fill="none" stroke="#6c757d" stroke-width="1"/>
      <text x="205" y="22" font-family="Arial" font-size="11">GitHub</text>
      
      <rect x="260" y="0" width="60" height="35" fill="#ffc107" stroke="#ffa000" stroke-width="1"/>
      <text x="280" y="22" font-family="Arial" font-size="11">Review</text>
    </g>
    
    <!-- Project Info Tabs -->
    <g transform="translate(20, 475)">
      <rect x="0" y="0" width="60" height="25" fill="#007bff" stroke="#0056b3" stroke-width="1"/>
      <text x="25" y="17" font-family="Arial" font-size="10" fill="white">Details</text>
      
      <rect x="60" y="0" width="60" height="25" fill="none" stroke="#ced4da" stroke-width="1"/>
      <text x="85" y="17" font-family="Arial" font-size="10">Reviews</text>
      
      <rect x="120" y="0" width="60" height="25" fill="none" stroke="#ced4da" stroke-width="1"/>
      <text x="145" y="17" font-family="Arial" font-size="10">Files</text>
      
      <rect x="180" y="0" width="60" height="25" fill="none" stroke="#ced4da" stroke-width="1"/>
      <text x="205" y="17" font-family="Arial" font-size="10">History</text>
    </g>
    
    <!-- Content Area -->
    <rect x="20" y="505" width="360" height="150" fill="white" stroke="#dee2e6" stroke-width="1"/>
    
    <!-- Project Details Content -->
    <g transform="translate(30, 520)">
      <text x="0" y="15" font-family="Arial" font-size="12" font-weight="bold">Technologies:</text>
      <text x="0" y="35" font-family="Arial" font-size="11">React.js, Node.js, Express, MongoDB, Stripe API</text>
      
      <text x="0" y="65" font-family="Arial" font-size="12" font-weight="bold">Description:</text>
      <text x="0" y="85" font-family="Arial" font-size="11">A full-stack e-commerce application featuring</text>
      <text x="0" y="100" font-family="Arial" font-size="11">user authentication, shopping cart functionality,</text>
      <text x="0" y="115" font-family="Arial" font-size="11">payment processing, and admin dashboard.</text>
      
      <text x="0" y="145" font-family="Arial" font-size="12" font-weight="bold">Features:</text>
      <text x="0" y="165" font-family="Arial" font-size="11">• User registration and login system</text>
      <text x="0" y="180" font-family="Arial" font-size="11">• Product catalog with search and filters</text>
      <text x="0" y="195" font-family="Arial" font-size="11">• Shopping cart and checkout process</text>
      <text x="0" y="210" font-family="Arial" font-size="11">• Order management and history</text>
    </g>
    
    <!-- Add Review Section -->
    <g transform="translate(20, 675)">
      <text x="0" y="15" font-family="Arial" font-size="12" font-weight="bold">Add Review:</text>
      <rect x="0" y="20" width="280" height="25" fill="white" stroke="#ced4da" stroke-width="1"/>
      <text x="5" y="37" font-family="Arial" font-size="10" fill="#6c757d">Write a review...</text>
      
      <rect x="290" y="20" width="60" height="25" fill="#28a745" stroke="#1e7e34" stroke-width="1"/>
      <text x="310" y="37" font-family="Arial" font-size="10" fill="white">Submit</text>
    </g>
  </g>
</svg>